IKResults
version=1
nRows=9
nColumns=63
inDegrees=yes

Units are S.I. units (second, meters, Newtons, ...)
If the header above contains a line with 'inDegrees', this indicates whether rotational values are in degrees (yes) or radians (no).

endheader
time	pelvis_tilt	pelvis_list	pelvis_rotation	pelvis_tx	pelvis_ty	pelvis_tz	hip_flexion_r	hip_adduction_r	hip_rotation_r	knee_angle_r	knee_angle_r_beta	ankle_angle_r	subtalar_angle_r	mtp_angle_r	hip_flexion_l	hip_adduction_l	hip_rotation_l	knee_angle_l	knee_angle_l_beta	ankle_angle_l	subtalar_angle_l	mtp_angle_l	L5_S1_Flex_Ext	L5_S1_Lat_Bending	L5_S1_axial_rotation	L4_L5_Flex_Ext	L4_L5_Lat_Bending	L4_L5_axial_rotation	L3_L4_Flex_Ext	L3_L4_Lat_Bending	L3_L4_axial_rotation	L2_L3_Flex_Ext	L2_L3_Lat_Bending	L2_L3_axial_rotation	L1_L2_Flex_Ext	L1_L2_Lat_Bending	L1_L2_axial_rotation	L1_T12_Flex_Ext	L1_T12_Lat_Bending	L1_T12_axial_rotation	Abs_r3	Abs_r2	Abs_r1	Abs_t1	Abs_t2	neck_flexion	neck_bending	neck_rotation	arm_flex_r	arm_add_r	arm_rot_r	elbow_flex_r	pro_sup_r	wrist_flex_r	wrist_dev_r	arm_flex_l	arm_add_l	arm_rot_l	elbow_flex_l	pro_sup_l	wrist_flex_l	wrist_dev_l
      2.03333333	    -36.29062706	     -0.14771299	     -5.33607803	     -0.61086055	      0.27348385	     -0.49695158	    149.85528153	     -7.99316985	     13.73762157	     84.23483395	      1.47017520	     -8.11092033	    -12.80390355	      0.00000000	    149.76777582	    -20.54578577	     -2.91674528	     84.18121138	      1.46923931	    -12.39739364	    -19.62913271	      0.00000000	     10.89404193	     -0.47532383	     -0.59078128	     20.23132527	     -0.63218070	     -0.62770511	     17.89782149	     -1.15570237	     -0.62770511	     12.45080052	     -1.15570237	     -0.51693362	     10.11620734	     -0.96928036	     -0.48000979	      6.22485556	     -0.73627662	     -0.44308596	     77.81505210	     -5.37695826	     -3.28574822	      0.00000000	      0.00000000	    -28.40661096	      7.11941993	     -8.77044522	    -31.40765433	    -18.49794039	    -11.79155588	     46.78735616	     89.99559364	      0.00000000	      0.00000000	    -48.30690908	    -20.73283659	    -12.86093816	     60.24245935	     89.99559364	      0.00000000	      0.00000000
      2.06666667	    -37.60657045	     -0.45614083	     -5.63384003	     -0.62877568	      0.27631715	     -0.50047967	    149.78669188	     -9.64969535	     12.36155174	     79.80267569	      1.39281944	    -10.12951442	    -12.90027814	      0.00000000	    149.66734569	    -19.75190842	     -2.81779180	     79.98236585	      1.39595563	    -13.67109113	    -19.63637536	      0.00000000	     11.97148774	     -0.37202747	     -0.58685695	     22.23224987	     -0.49479654	     -0.62353551	     19.66795720	     -0.90454760	     -0.62353551	     13.68221333	     -0.90454760	     -0.51349983	     11.11672351	     -0.75863843	     -0.47682127	      6.84050809	     -0.57627056	     -0.44014271	     85.51113975	     -4.20844920	     -3.26392229	      0.00000000	      0.00000000	    -28.44978409	      7.02563989	     -9.36396069	    -37.75142278	    -20.33634805	    -13.37280081	     51.07231924	     89.99559364	      0.00000000	      0.00000000	    -51.90829068	    -20.67906746	    -15.02786951	     64.97491690	     89.99559364	      0.00000000	      0.00000000
      2.10000000	    -38.75146995	     -0.81052290	     -5.68672538	     -0.64725080	      0.27963927	     -0.50430514	    149.46154138	    -11.45166851	     10.99781045	     75.31532062	      1.31450032	    -12.55736782	    -13.21895112	      0.00000000	    149.22573639	    -18.57254118	     -2.70338920	     75.56424694	      1.31884491	    -15.30221023	    -19.64187574	      0.00000000	     12.99985829	     -0.27633325	     -0.62373901	     24.14203683	     -0.36752322	     -0.66272269	     21.35746719	     -0.67187666	     -0.66272269	     14.85753804	     -0.67187666	     -0.54577163	     12.07166841	     -0.56349876	     -0.50678794	      7.42811903	     -0.42804020	     -0.46780425	     92.85668779	     -3.12593698	     -3.46904923	      0.00000000	      0.00000000	    -28.46323382	      6.40060695	     -9.93703547	    -44.21903194	    -22.15163485	    -15.95845456	     55.80079366	     89.99559364	      0.00000000	      0.00000000	    -55.19298398	    -20.69853104	    -17.06397169	     69.19015973	     89.99559364	      0.00000000	      0.00000000
      2.13333333	    -36.22204589	     -1.03790027	     -5.37447346	     -0.66300097	      0.28421296	     -0.50699450	    146.18605551	    -12.84674892	     10.29467814	     71.71433448	      1.25165126	    -14.43133084	    -13.40694152	      0.00000000	    145.58689314	    -17.67051109	     -2.82748012	     71.92866889	      1.25539210	    -16.65486288	    -19.64103868	      0.00000000	     13.42926763	     -0.26410286	     -0.63453125	     24.93949292	     -0.35125681	     -0.67418945	     22.06294379	     -0.64213970	     -0.67418945	     15.34830997	     -0.64213970	     -0.55521484	     12.47041792	     -0.53855856	     -0.51555664	      7.67348352	     -0.40909533	     -0.47589843	     95.92391576	     -2.98758440	     -3.52907243	      0.00000000	      0.00000000	    -28.47181360	      6.36479434	    -10.42232282	    -48.91886203	    -23.82765573	    -17.69283971	     59.00740332	     89.99559364	      0.00000000	      0.00000000	    -57.39704012	    -21.36269342	    -18.61893619	     72.17303425	     89.99559364	      0.00000000	      0.00000000
      2.16666667	    -30.07732125	     -1.39121635	     -5.17573825	     -0.67619107	      0.29062313	     -0.50816795	    139.77450500	    -13.85017927	      9.66417313	     69.03431738	      1.20487614	    -15.66425321	    -13.67975272	      0.00000000	    139.03736692	    -17.12289700	     -2.66921234	     69.32909635	      1.21002100	    -17.46245198	    -19.63281283	      0.00000000	     13.27752162	     -0.25340611	     -0.61254689	     24.65768540	     -0.33703013	     -0.65083107	     21.81364027	     -0.61613161	     -0.65083107	     15.17487946	     -0.61613161	     -0.53597853	     12.32950658	     -0.51674574	     -0.49769435	      7.58677585	     -0.39252606	     -0.45941017	     94.84000918	     -2.86658059	     -3.40680206	      0.00000000	      0.00000000	    -28.48367259	      6.63499803	    -10.75329003	    -51.88565726	    -25.35232527	    -19.19855956	     60.69462184	     89.99559364	      0.00000000	      0.00000000	    -58.40530433	    -22.20164357	    -19.97429547	     73.53546330	     89.99559364	      0.00000000	      0.00000000
      2.20000000	    -23.10727824	     -1.68588116	     -4.94481753	     -0.68976617	      0.29785015	     -0.50853916	    132.60494562	    -14.72040057	      9.07931399	     66.69099948	      1.16397752	    -16.68537192	    -13.93862514	      0.00000000	    131.75099578	    -16.68706490	     -2.58230677	     67.01213059	      1.16958232	    -18.16399045	    -19.61946241	      0.00000000	     12.98210991	     -0.24758388	     -0.58523908	     24.10907631	     -0.32928656	     -0.62181652	     21.32830837	     -0.60197545	     -0.62181652	     14.83725342	     -0.60197545	     -0.51208419	     12.05518726	     -0.50487305	     -0.47550675	      7.41797760	     -0.38350743	     -0.43892931	     92.72991288	     -2.80071836	     -3.25492417	      0.00000000	      0.00000000	    -28.48844870	      6.91729784	    -11.07150890	    -54.30643158	    -27.00686105	    -20.57976458	     61.93074054	     89.99559364	      0.00000000	      0.00000000	    -59.31518722	    -23.28358700	    -21.23764373	     74.30770998	     89.99559364	      0.00000000	      0.00000000
      2.23333333	    -15.46453844	     -1.89487222	     -4.67799445	     -0.70422842	      0.30567878	     -0.50825137	    124.81133629	    -15.51329664	      8.52532694	     64.64573940	      1.12828100	    -17.48459341	    -14.22271918	      0.00000000	    123.81229454	    -16.32045485	     -2.59301851	     64.91335161	      1.13295171	    -18.77299826	    -19.60316908	      0.00000000	     12.55598810	     -0.24436407	     -0.55977650	     23.31772550	     -0.32500421	     -0.59476253	     20.62823285	     -0.59414679	     -0.59476253	     14.35023880	     -0.59414679	     -0.48980444	     11.65949055	     -0.49830721	     -0.45481841	      7.17449160	     -0.37851994	     -0.41983238	     89.68616738	     -2.76429520	     -3.11330897	      0.00000000	      0.00000000	    -28.48595660	      7.13266046	    -11.38107461	    -56.13133146	    -28.79603671	    -21.92798622	     62.69733691	     89.99559364	      0.00000000	      0.00000000	    -60.14241604	    -24.52033547	    -22.49368807	     74.52790746	     89.99559364	      0.00000000	      0.00000000
      2.26666667	     -7.27539844	     -2.03454742	     -4.42724062	     -0.71999282	      0.31377832	     -0.50719633	    116.47956283	    -16.21762042	      8.00040138	     62.85386318	      1.09700686	    -18.15118002	    -14.55045910	      0.00000000	    115.29577916	    -16.09000718	     -2.81865186	     62.95143181	      1.09870975	    -19.35583365	    -19.58121303	      0.00000000	     12.00245145	     -0.24041564	     -0.53399241	     22.28975258	     -0.31975280	     -0.56736694	     19.71882748	     -0.58454658	     -0.56736694	     13.71760176	     -0.58454658	     -0.46724336	     11.14547641	     -0.49025557	     -0.43386884	      6.85820076	     -0.37240382	     -0.40049431	     85.73231043	     -2.71962977	     -2.96990561	      0.00000000	      0.00000000	    -28.47462610	      7.18458129	    -11.63616013	    -57.34958805	    -30.63577412	    -23.35438242	     62.99311959	     89.99559364	      0.00000000	      0.00000000	    -60.81947678	    -25.87965974	    -23.84051027	     74.24974786	     89.99559364	      0.00000000	      0.00000000
      2.30000000	      1.35872016	     -2.07090190	     -4.20034935	     -0.73721307	      0.32172464	     -0.50550628	    107.68406810	    -16.82730435	      7.61978056	     61.22368814	      1.06855494	    -18.74545764	    -14.96075781	      0.00000000	    106.25185438	    -15.91619745	     -3.19278829	     61.09483854	      1.06630609	    -19.91330427	    -19.55375211	      0.00000000	     11.32237765	     -0.24029209	     -0.49911950	     21.02678754	     -0.31958848	     -0.53031447	     18.60153424	     -0.58424618	     -0.53031447	     12.94034542	     -0.58424618	     -0.43672956	     10.51395989	     -0.49000362	     -0.40553459	      6.46960659	     -0.37221244	     -0.37433963	     80.87461132	     -2.71823215	     -2.77595293	      0.00000000	      0.00000000	    -28.44961206	      7.07599240	    -11.87144606	    -57.98905267	    -32.44941503	    -25.00383333	     62.96007480	     89.99559364	      0.00000000	      0.00000000	    -61.26417742	    -27.34269029	    -25.38636834	     73.46796006	     89.99559364	      0.00000000	      0.00000000
